<svg xmlns="http://www.w3.org/2000/svg" viewBox="0 0 200 200" width="200" height="200"><rect width="200" height="200" fill="#efe3c8"/><circle cx="100" cy="96" r="78" fill="#4d6a3a" opacity=".28"/><path d="M0 150 Q100 140 200 150" fill="none" stroke="#4d6a3a" stroke-width="1" opacity=".18"/><path d="M0 159 Q100 149 200 159" fill="none" stroke="#4d6a3a" stroke-width="1" opacity=".18"/><path d="M0 168 Q100 158 200 168" fill="none" stroke="#4d6a3a" stroke-width="1" opacity=".18"/><path d="M0 177 Q100 167 200 177" fill="none" stroke="#4d6a3a" stroke-width="1" opacity=".18"/><path d="M0 186 Q100 176 200 186" fill="none" stroke="#4d6a3a" stroke-width="1" opacity=".18"/><path d="M0 195 Q100 185 200 195" fill="none" stroke="#4d6a3a" stroke-width="1" opacity=".18"/><path d="M0 204 Q100 194 200 204" fill="none" stroke="#4d6a3a" stroke-width="1" opacity=".18"/><path d="M14 200 Q22 158 62 146 L82 138 L118 138 L138 146 Q178 158 186 200 Z" fill="#4d6a3a" stroke="#2a211a" stroke-width="3"/><path d="M86 132 L86 146 L114 146 L114 132 Z" fill="#e3bf96" stroke="#2a211a" stroke-width="2.5"/><path d="M78 140 L100 176 L122 140" fill="none" stroke="#2f2a24" stroke-width="9" stroke-linejoin="round"/><path d="M34 160 Q100 150 166 160" fill="none" stroke="#2a211a" stroke-width="1.6" opacity=".55"/><path d="M34 174 Q100 164 166 174" fill="none" stroke="#2a211a" stroke-width="1.6" opacity=".55"/><path d="M34 188 Q100 178 166 188" fill="none" stroke="#2a211a" stroke-width="1.6" opacity=".55"/><path d="M52 152 L52 200" stroke="#2a211a" stroke-width="1.2" opacity=".35"/><path d="M76 152 L76 200" stroke="#2a211a" stroke-width="1.2" opacity=".35"/><path d="M124 152 L124 200" stroke="#2a211a" stroke-width="1.2" opacity=".35"/><path d="M148 152 L148 200" stroke="#2a211a" stroke-width="1.2" opacity=".35"/><ellipse cx="70" cy="99" rx="6" ry="10" fill="#e3bf96" stroke="#2a211a" stroke-width="2.5"/><ellipse cx="130" cy="99" rx="6" ry="10" fill="#e3bf96" stroke="#2a211a" stroke-width="2.5"/><ellipse cx="100" cy="97" rx="30" ry="40" fill="#e3bf96" stroke="#2a211a" stroke-width="3"/><path d="M80 88 L95 82" stroke="#2a211a" stroke-width="4" stroke-linecap="round"/><path d="M120 88 L105 82" stroke="#2a211a" stroke-width="4" stroke-linecap="round"/><path d="M81 92 Q88 87 95 92" fill="none" stroke="#2a211a" stroke-width="2.5" stroke-linecap="round"/><circle cx="88" cy="92" r="2.3" fill="#2a211a"/><path d="M105 92 Q112 87 119 92" fill="none" stroke="#2a211a" stroke-width="2.5" stroke-linecap="round"/><circle cx="112" cy="92" r="2.3" fill="#2a211a"/><path d="M100 94 L97 108 L103 109" fill="none" stroke="#2a211a" stroke-width="2.2" stroke-linecap="round" stroke-linejoin="round"/><path d="M92 119 Q100 121 108 119" fill="none" stroke="#2a211a" stroke-width="2.4" stroke-linecap="round"/><path d="M72 99 Q74 135 100 155 Q126 135 128 99 Q120 119 112 113 Q100 117 88 113 Q80 119 72 99 Z" fill="#2a211a"/><path d="M92 111 Q100 115 108 111" fill="none" stroke="#e3bf96" stroke-width="2.5"/><path d="M66 82 Q64 44 100 40 Q136 44 134 82 L126 82 Q124 58 100 56 Q76 58 74 82 Z" fill="#5a5b5e" stroke="#2a211a" stroke-width="3"/><path d="M100 40 L100 26" stroke="#2a211a" stroke-width="3"/><path d="M100 28 Q116 14 104 4 Q108 18 92 22 Z" fill="#e8e1cf" stroke="#2a211a" stroke-width="2"/><path d="M66 82 L60 110 L72 104 Z" fill="#5a5b5e" stroke="#2a211a" stroke-width="2.5"/><path d="M134 82 L140 110 L128 104 Z" fill="#5a5b5e" stroke="#2a211a" stroke-width="2.5"/><rect x="3" y="3" width="194" height="194" fill="none" stroke="#2a211a" stroke-width="3" opacity=".6"/></svg>
